<svg width="512" height="512" viewBox="0 0 512 512" fill="none" xmlns="http://www.w3.org/2000/svg">
<path d="M504.5 480.968H495.968V23.532C495.968 19.39 492.61 16.032 488.468 16.032H23.532C19.39 16.032 16.032 19.39 16.032 23.532V480.968H7.5C3.358 480.968 0 484.326 0 488.468C0 492.61 3.358 495.968 7.5 495.968H504.5C508.642 495.968 512 492.61 512 488.468C512 484.326 508.642 480.968 504.5 480.968ZM31.032 31.032H480.968V480.968H399.775V119.726C399.775 115.584 396.417 112.226 392.275 112.226H119.726C115.584 112.226 112.226 115.584 112.226 119.726V143.775C112.226 147.917 115.584 151.275 119.726 151.275C123.868 151.275 127.226 147.917 127.226 143.775V127.226H144.291V480.968H127.226V175.839C127.226 171.697 123.868 168.339 119.726 168.339C115.584 168.339 112.226 171.697 112.226 175.839V480.968H31.032V31.032ZM360.209 296.597C356.067 296.597 352.709 299.955 352.709 304.097V480.968H295.564V296.081C295.564 291.376 299.392 287.549 304.096 287.549H336.16C353.556 287.549 367.708 273.397 367.708 256.001V127.226H384.773V480.968H367.708V304.097C367.709 299.955 364.352 296.597 360.209 296.597ZM352.709 127.226V184.372H344.177C331.201 184.372 320.645 194.929 320.645 207.904V240.485H191.355V207.904C191.355 194.928 180.798 184.372 167.823 184.372H159.291V127.226H352.709ZM159.291 282.845C164.105 285.824 169.774 287.548 175.839 287.548H207.903C212.608 287.548 216.435 291.376 216.435 296.08V480.967H159.29V282.845H159.291ZM207.903 272.548H175.839C166.714 272.548 159.291 265.125 159.291 256V199.371H167.823C172.528 199.371 176.355 203.199 176.355 207.903V247.984C176.355 252.126 179.713 255.484 183.855 255.484H328.145C332.287 255.484 335.645 252.126 335.645 247.984V207.903C335.645 203.198 339.473 199.371 344.177 199.371H352.709V256C352.709 265.125 345.286 272.548 336.161 272.548H304.097C291.121 272.548 280.565 283.105 280.565 296.08V480.967H231.436V296.081C231.436 283.105 220.879 272.548 207.903 272.548Z" fill="#86C540"/>
<path d="M197.174 92.964L215.919 74.219L234.664 92.964C236.128 94.428 238.048 95.161 239.967 95.161C241.886 95.161 243.806 94.429 245.27 92.964C248.199 90.035 248.199 85.286 245.27 82.358L221.223 58.31C218.294 55.381 213.545 55.381 210.617 58.31L186.569 82.358C183.64 85.287 183.64 90.036 186.569 92.964C189.497 95.893 194.246 95.893 197.174 92.964Z" fill="#86C540"/>
<path d="M290.777 92.964C292.241 94.428 294.161 95.161 296.08 95.161C297.999 95.161 299.919 94.429 301.383 92.964L325.431 68.916C328.36 65.987 328.36 61.238 325.431 58.31C322.502 55.381 317.753 55.381 314.825 58.31L296.08 77.055L277.335 58.31C274.406 55.381 269.657 55.381 266.729 58.31C263.8 61.239 263.8 65.988 266.729 68.916L290.777 92.964Z" fill="#86C540"/>
<path d="M440.371 287.548C444.513 287.548 447.871 284.19 447.871 280.048V272.032C447.871 267.89 444.513 264.532 440.371 264.532C436.229 264.532 432.871 267.89 432.871 272.032V280.048C432.871 284.19 436.229 287.548 440.371 287.548Z" fill="#86C540"/>
<path d="M440.371 327.629C444.513 327.629 447.871 324.271 447.871 320.129V312.113C447.871 307.971 444.513 304.613 440.371 304.613C436.229 304.613 432.871 307.971 432.871 312.113V320.129C432.871 324.271 436.229 327.629 440.371 327.629Z" fill="#86C540"/>
<path d="M256 231.436C268.976 231.436 279.532 220.879 279.532 207.904C279.532 194.929 268.976 184.371 256 184.371C243.024 184.371 232.468 194.928 232.468 207.903C232.468 220.878 243.024 231.436 256 231.436ZM256 199.371C260.705 199.371 264.532 203.199 264.532 207.903C264.532 212.607 260.704 216.435 256 216.435C251.296 216.435 247.468 212.607 247.468 207.903C247.468 203.199 251.295 199.371 256 199.371Z" fill="#86C540"/>
</svg>
