<svg width="512" height="512" viewBox="0 0 512 512" fill="none" xmlns="http://www.w3.org/2000/svg">
<path d="M283.39 347.443L335.458 301.404" stroke="#86C540" stroke-width="15" stroke-miterlimit="10" stroke-linecap="round" stroke-linejoin="round"/>
<path d="M226.788 350.77L136.601 430.514H189.439L254.611 372.889" stroke="#86C540" stroke-width="15" stroke-miterlimit="10" stroke-linecap="round" stroke-linejoin="round"/>
<path d="M308.907 278.161L258.432 322.791" stroke="#86C540" stroke-width="15" stroke-miterlimit="10" stroke-linecap="round" stroke-linejoin="round"/>
<path d="M364.838 275.426L375.514 265.987C382.755 259.585 383.435 248.525 377.033 241.285C370.631 234.045 359.572 233.364 352.331 239.766L338.765 251.762" stroke="#86C540" stroke-width="15" stroke-miterlimit="10" stroke-linecap="round" stroke-linejoin="round"/>
<path d="M338.672 467.507H173.328C167.399 467.507 162.108 463.787 160.101 458.208L150.14 430.514H361.858L351.897 458.208C349.892 463.787 344.601 467.507 338.672 467.507Z" stroke="#86C540" stroke-width="15" stroke-miterlimit="10" stroke-linecap="round" stroke-linejoin="round"/>
<path d="M467.479 94.7071H44.5211C40.9691 94.7071 38.0901 91.8281 38.0901 88.2761V64.1471C38.0901 60.5951 40.9691 57.7161 44.5211 57.7161H467.48C471.032 57.7161 473.911 60.5951 473.911 64.1471V88.2751C473.91 91.8271 471.031 94.7071 467.479 94.7071Z" stroke="#86C540" stroke-width="15" stroke-miterlimit="10" stroke-linecap="round" stroke-linejoin="round"/>
<path d="M100.75 94.7071H76.0891L86.0891 57.7161H110.75L100.75 94.7071Z" stroke="#86C540" stroke-width="15" stroke-miterlimit="10" stroke-linecap="round" stroke-linejoin="round"/>
<path d="M165.782 94.7071H141.121L151.121 57.7161H175.782L165.782 94.7071Z" stroke="#86C540" stroke-width="15" stroke-miterlimit="10" stroke-linecap="round" stroke-linejoin="round"/>
<path d="M230.814 94.7071H206.154L216.154 57.7161H240.814L230.814 94.7071Z" stroke="#86C540" stroke-width="15" stroke-miterlimit="10" stroke-linecap="round" stroke-linejoin="round"/>
<path d="M295.846 94.7071H271.186L281.186 57.7161H305.846L295.846 94.7071Z" stroke="#86C540" stroke-width="15" stroke-miterlimit="10" stroke-linecap="round" stroke-linejoin="round"/>
<path d="M360.879 94.7071H336.218L346.218 57.7161H370.879L360.879 94.7071Z" stroke="#86C540" stroke-width="15" stroke-miterlimit="10" stroke-linecap="round" stroke-linejoin="round"/>
<path d="M425.911 94.7071H401.25L411.25 57.7161H435.911L425.911 94.7071Z" stroke="#86C540" stroke-width="15" stroke-miterlimit="10" stroke-linecap="round" stroke-linejoin="round"/>
<path d="M423.37 125.593H88.6301C80.5001 125.593 72.9412 121.412 68.6192 114.526L56.1812 94.707H455.818L443.38 114.526C439.059 121.412 431.5 125.593 423.37 125.593Z" stroke="#86C540" stroke-width="15" stroke-miterlimit="10" stroke-linecap="round" stroke-linejoin="round"/>
<path d="M283.801 204.353L372.875 125.593H320.037L258.273 180.205" stroke="#86C540" stroke-width="15" stroke-miterlimit="10" stroke-linecap="round" stroke-linejoin="round"/>
<path d="M203.419 275.426L254.611 230.163" stroke="#86C540" stroke-width="15" stroke-miterlimit="10" stroke-linecap="round" stroke-linejoin="round"/>
<path d="M146.387 279.135L136.487 287.888C129.246 294.29 128.567 305.35 134.968 312.59C138.427 316.502 143.244 318.498 148.085 318.498C152.204 318.498 156.341 317.052 159.67 314.108L171.981 303.223" stroke="#86C540" stroke-width="15" stroke-miterlimit="10" stroke-linecap="round" stroke-linejoin="round"/>
<path d="M228.151 206.839L177.345 251.762" stroke="#86C540" stroke-width="15" stroke-miterlimit="10" stroke-linecap="round" stroke-linejoin="round"/>
<path d="M136.487 265.987L322.561 430.514H375.399L159.671 239.766C152.431 233.365 141.369 234.045 134.969 241.285C128.567 248.525 129.246 259.584 136.487 265.987Z" stroke="#86C540" stroke-width="15" stroke-miterlimit="10" stroke-linecap="round" stroke-linejoin="round"/>
<path d="M84.7542 467.507H119.415" stroke="#86C540" stroke-width="15" stroke-miterlimit="10" stroke-linecap="round" stroke-linejoin="round"/>
<path d="M392.585 467.507H427.246" stroke="#86C540" stroke-width="15" stroke-miterlimit="10" stroke-linecap="round" stroke-linejoin="round"/>
<path d="M139.75 504.5H458.248C463.602 504.5 467.943 500.16 467.943 494.805V440.208C467.943 434.854 463.603 430.513 458.248 430.513H53.7531C48.3991 430.513 44.0581 434.854 44.0581 440.208V494.805C44.0581 500.159 48.3981 504.5 53.7531 504.5H110.75" stroke="#86C540" stroke-width="15" stroke-miterlimit="10" stroke-linecap="round" stroke-linejoin="round"/>
<path d="M343.875 7.5H77.6511V57.716H434.349V7.5H372.875" stroke="#86C540" stroke-width="15" stroke-miterlimit="10" stroke-linecap="round" stroke-linejoin="round"/>
<path d="M207.02 185.625L352.33 314.108C355.659 317.051 359.795 318.498 363.915 318.498C368.756 318.498 373.574 316.501 377.032 312.59C383.434 305.35 382.755 294.29 375.513 287.888L191.963 125.593H139.125L185.291 166.413" stroke="#86C540" stroke-width="15" stroke-miterlimit="10" stroke-linecap="round" stroke-linejoin="round"/>
</svg>
