<svg width="512" height="512" viewBox="0 0 512 512" fill="none" xmlns="http://www.w3.org/2000/svg">
<path d="M490.69 30.78H21.31C9.56 30.78 0 40.34 0 52.09V459.91C0 471.66 9.56 481.22 21.31 481.22H490.68C502.43 481.22 511.99 471.66 511.99 459.91V52.09C512 40.34 502.44 30.78 490.69 30.78ZM317.05 465.79H203.86V184.27H311.97C314.77 184.27 317.05 186.55 317.05 189.35V465.79ZM189.28 465.79H76.09V189.36C76.09 186.56 78.37 184.28 81.17 184.28H189.28V465.79ZM497.43 459.91C497.43 463.63 494.41 466.65 490.69 466.65H331.62V189.35C331.62 178.51 322.8 169.69 311.96 169.69H196.57H81.18C70.34 169.69 61.52 178.51 61.52 189.35V466.65H21.31C17.59 466.65 14.57 463.63 14.57 459.91V52.09C14.57 48.37 17.59 45.35 21.31 45.35H490.68C494.4 45.35 497.42 48.37 497.42 52.09V459.91H497.43Z" fill="#86C540"/>
<path d="M420.29 246.81C418.46 244.78 415.84 243.62 413.11 243.62C410.38 243.62 407.76 244.78 405.93 246.81L361.46 296.02C358.9 298.86 358.24 302.95 359.79 306.44C361.34 309.93 364.82 312.19 368.64 312.19H457.58C461.4 312.19 464.88 309.93 466.43 306.44C467.98 302.95 467.33 298.86 464.76 296.02L420.29 246.81ZM416.74 256.58C416.73 256.59 416.73 256.58 416.74 256.58ZM379.65 297.63L413.11 260.6L446.57 297.63H379.65Z" fill="#86C540"/>
<path d="M457.58 337.86H368.64C364.82 337.86 361.34 340.12 359.79 343.61C358.24 347.1 358.89 351.19 361.46 354.03L405.93 403.24C407.76 405.27 410.38 406.43 413.11 406.43C415.84 406.43 418.46 405.27 420.29 403.24L464.76 354.02C467.32 351.18 467.98 347.09 466.42 343.6C464.86 340.11 461.4 337.86 457.58 337.86ZM413.11 389.46L379.65 352.43H446.57L413.11 389.46Z" fill="#86C540"/>
<path d="M254.77 78.74H138.37C119.03 78.74 103.3 94.47 103.3 113.81C103.3 133.15 119.03 148.88 138.37 148.88H254.76C274.1 148.88 289.83 133.15 289.83 113.81C289.83 94.47 274.11 78.74 254.77 78.74ZM254.77 134.31H138.37C127.07 134.31 117.87 125.12 117.87 113.81C117.87 102.5 127.06 93.31 138.37 93.31H254.76C266.06 93.31 275.26 102.5 275.26 113.81C275.26 125.12 266.07 134.31 254.77 134.31Z" fill="#86C540"/>
</svg>
