<svg width="512" height="512" viewBox="0 0 512 512" fill="none" xmlns="http://www.w3.org/2000/svg">
<path d="M471.76 383.736C465.344 369.312 451 360 435.216 360H375.056L362.176 324.584C370.376 320.048 376 311.416 376 301.408V299.016C376 296.144 375.536 293.312 374.64 290.608L360 246.704V56H376V8H8V56H24V504H360V365.416L389.344 446.112C381.296 451.928 376 461.328 376 472C376 489.648 390.352 504 408 504C419.792 504 430 497.52 435.552 488H477.352C492.04 488 504 476.048 504 461.352C504 456.552 502.712 451.856 500.264 447.744L471.76 383.736ZM288 472C288 480.824 280.824 488 272 488C263.176 488 256 480.824 256 472V288H240V472C240 480.824 232.824 488 224 488C215.176 488 208 480.824 208 472V216H192V312H184C175.176 312 168 304.824 168 296V256C168 216.296 200.304 184 240 184H258.808C296.744 184 330.296 208.176 342.288 244.168L359.456 295.672C359.824 296.752 360 297.872 360 299.016V301.408C360 307.248 355.248 312 349.4 312C344.832 312 340.792 309.088 339.352 304.752L309.768 216H288V472ZM280 56V82.112C270.92 75.76 259.896 72 248 72C217.12 72 192 97.128 192 128C192 145.888 200.464 161.808 213.568 172.072C177.92 183.32 152 216.688 152 256V296C152 313.648 166.352 328 184 328H192V472C192 477.856 193.696 483.272 196.448 488H104V56H280ZM248 168C225.944 168 208 150.056 208 128C208 105.944 225.944 88 248 88C270.056 88 288 105.944 288 128C288 150.056 270.056 168 248 168ZM344 212.44C329.624 191.856 308.256 177.072 283.776 171.04C296.12 160.76 304 145.28 304 128C304 117.504 301.048 107.712 296 99.304V56H344V212.44ZM24 24H360V40H24V24ZM40 56H88V488H40V56ZM299.552 488C302.304 483.272 304 477.856 304 472V249.296L324.168 309.808C327.208 318.928 334.856 325.48 344 327.376V488H299.552ZM408 488C399.176 488 392 480.824 392 472C392 463.176 399.176 456 408 456C416.824 456 424 463.176 424 472C424 480.824 416.824 488 408 488ZM477.344 472H440C440 454.352 425.648 440 408 440C406.728 440 405.52 440.232 404.288 440.376L380.88 376H435.224C444.696 376 453.296 381.584 457.152 390.24L485.864 454.72L486.384 455.704C487.44 457.4 488 459.352 488 461.352C488 467.224 483.224 472 477.344 472Z" fill="#86C540"/>
<path d="M440 265.888L476.944 192H403.056L440 265.888ZM440 230.112L428.944 208H451.056L440 230.112Z" fill="#86C540"/>
<path d="M403.056 176H476.944L440 102.112L403.056 176ZM428.944 160L440 137.888L451.056 160H428.944Z" fill="#86C540"/>
<path d="M480 72H400C386.768 72 376 82.768 376 96V272C376 285.232 386.768 296 400 296H480C493.232 296 504 285.232 504 272V96C504 82.768 493.232 72 480 72ZM488 272C488 276.416 484.408 280 480 280H400C395.592 280 392 276.416 392 272V96C392 91.584 395.592 88 400 88H480C484.408 88 488 91.584 488 96V272Z" fill="#86C540"/>
<path d="M120 72H136V88H120V72Z" fill="#86C540"/>
<path d="M152 72H168V88H152V72Z" fill="#86C540"/>
<path d="M184 72H200V88H184V72Z" fill="#86C540"/>
</svg>
