<svg width="64" height="64" viewBox="0 0 64 64" fill="none" xmlns="http://www.w3.org/2000/svg">
<path d="M16 15H22C22.1857 15 22.3678 14.9483 22.5257 14.8506C22.6837 14.753 22.8114 14.6133 22.8944 14.4472C22.9775 14.2811 23.0126 14.0951 22.996 13.9102C22.9793 13.7252 22.9114 13.5485 22.8 13.4L19.8 9.39996C19.7028 9.28185 19.5807 9.18671 19.4424 9.1214C19.304 9.05609 19.153 9.02222 19 9.02222C18.847 9.02222 18.696 9.05609 18.5577 9.1214C18.4193 9.18671 18.2972 9.28185 18.2 9.39996L15.2 13.4C15.0886 13.5485 15.0207 13.7252 15.004 13.9102C14.9874 14.0951 15.0225 14.2811 15.1056 14.4472C15.1886 14.6133 15.3163 14.753 15.4743 14.8506C15.6322 14.9483 15.8143 15 16 15ZM19 11.667L20 13H18L19 11.667Z" fill="#86C540"/>
<path d="M30.2 14.6C30.2931 14.7242 30.4139 14.825 30.5528 14.8944C30.6916 14.9639 30.8448 15 31 15C31.1552 15 31.3084 14.9639 31.4472 14.8944C31.5861 14.825 31.7069 14.7242 31.8 14.6L34.8 10.6C34.9114 10.4514 34.9793 10.2748 34.996 10.0898C35.0126 9.90484 34.9775 9.71889 34.8944 9.55279C34.8114 9.38668 34.6837 9.24698 34.5257 9.14935C34.3678 9.05171 34.1857 9 34 9H28C27.8143 9 27.6322 9.05171 27.4743 9.14935C27.3163 9.24698 27.1886 9.38668 27.1056 9.55279C27.0225 9.71889 26.9874 9.90484 27.004 10.0898C27.0207 10.2748 27.0886 10.4514 27.2 10.6L30.2 14.6ZM32 11L31 12.333L30 11H32Z" fill="#86C540"/>
<path d="M54 33H48C47.7348 33 47.4804 33.1054 47.2929 33.2929C47.1054 33.4804 47 33.7348 47 34V46C47 46.2652 47.1054 46.5196 47.2929 46.7071C47.4804 46.8946 47.7348 47 48 47H54C54.2652 47 54.5196 46.8946 54.7071 46.7071C54.8946 46.5196 55 46.2652 55 46V34C55 33.7348 54.8946 33.4804 54.7071 33.2929C54.5196 33.1054 54.2652 33 54 33ZM53 45H49V35H53V45Z" fill="#86C540"/>
<path d="M52 37H50V39H52V37Z" fill="#86C540"/>
<path d="M52 41H50V43H52V41Z" fill="#86C540"/>
<path d="M63 15.0001C63.0024 12.2445 62.1908 9.5495 60.6671 7.25348C59.1433 4.95746 56.9753 3.1627 54.4351 2.09446C51.895 1.02622 49.0959 0.732114 46.3891 1.24905C43.6824 1.76599 41.1887 3.07094 39.221 5.00011H2C1.73478 5.00011 1.48043 5.10546 1.29289 5.293C1.10536 5.48054 1 5.73489 1 6.00011V62.0001C1 62.2653 1.10536 62.5197 1.29289 62.7072C1.48043 62.8948 1.73478 63.0001 2 63.0001H58C58.2652 63.0001 58.5196 62.8948 58.7071 62.7072C58.8946 62.5197 59 62.2653 59 62.0001V24.7791C61.5642 22.1701 63.0007 18.6582 63 15.0001ZM49 3.00011C51.3734 3.00011 53.6935 3.70389 55.6668 5.02247C57.6402 6.34105 59.1783 8.21519 60.0866 10.4079C60.9948 12.6006 61.2324 15.0134 60.7694 17.3412C60.3064 19.669 59.1635 21.8072 57.4853 23.4854C55.8071 25.1636 53.6689 26.3065 51.3411 26.7695C49.0133 27.2326 46.6005 26.9949 44.4078 26.0867C42.2151 25.1784 40.3409 23.6403 39.0224 21.667C37.7038 19.6936 37 17.3735 37 15.0001C37.0034 11.8186 38.2688 8.76832 40.5185 6.51863C42.7682 4.26894 45.8185 3.00355 49 3.00011ZM36.37 21.0001H10C9.73478 21.0001 9.48043 21.1055 9.29289 21.293C9.10536 21.4805 9 21.7349 9 22.0001V61.0001H7V19.0001H35.59C35.7979 19.6859 36.0587 20.3546 36.37 21.0001ZM11 23.0001H24V61.0001H11V23.0001ZM26 23.0001H37.527C37.9683 23.6326 38.461 24.2276 39 24.7791V61.0001H26V23.0001ZM41 26.4731C41.6338 26.913 42.3027 27.3 43 27.6301V61.0001H41V26.4731ZM3 7.00011H37.527C35.466 9.89806 34.6168 13.4857 35.16 17.0001H6C5.73478 17.0001 5.48043 17.1055 5.29289 17.293C5.10536 17.4805 5 17.7349 5 18.0001V61.0001H3V7.00011ZM45 61.0001V28.4101C47.0163 29.0173 49.1441 29.1584 51.223 28.8228C53.3018 28.4873 55.2772 27.6838 57 26.4731V61.0001H45Z" fill="#86C540"/>
<path d="M46 14.4381V19.3701C45.4908 19.9474 45.159 20.6594 45.0445 21.4206C44.9299 22.1819 45.0375 22.96 45.3542 23.6616C45.6709 24.3632 46.1834 24.9585 46.8301 25.3761C47.4767 25.7937 48.2302 26.0158 49 26.0158C49.7698 26.0158 50.5232 25.7937 51.1699 25.3761C51.8165 24.9585 52.329 24.3632 52.6457 23.6616C52.9624 22.96 53.07 22.1819 52.9554 21.4206C52.8409 20.6594 52.5091 19.9474 52 19.3701V14.4381C52.9577 13.9192 53.7476 13.1381 54.2771 12.1862C54.8066 11.2343 55.0537 10.1512 54.9895 9.06388C54.9252 7.97655 54.5523 6.93007 53.9144 6.04717C53.2765 5.16427 52.4001 4.48155 51.388 4.07907C51.236 4.0151 51.0706 3.98969 50.9064 4.00512C50.7423 4.02054 50.5845 4.07632 50.4471 4.16748C50.3097 4.25865 50.197 4.38237 50.119 4.52763C50.0409 4.67289 50.0001 4.83519 50 5.00007V8.02007L49 8.98307L48 8.02007V5.00007C47.9999 4.83519 47.959 4.67289 47.881 4.52763C47.803 4.38237 47.6902 4.25865 47.5529 4.16748C47.4155 4.07632 47.2577 4.02054 47.0935 4.00512C46.9294 3.98969 46.7639 4.0151 46.612 4.07907C45.5998 4.48155 44.7234 5.16427 44.0855 6.04717C43.4476 6.93007 43.0747 7.97655 43.0105 9.06388C42.9462 10.1512 43.1933 11.2343 43.7228 12.1862C44.2523 13.1381 45.0423 13.9192 46 14.4381ZM46 6.89107V8.44507C45.9998 8.57966 46.0269 8.71289 46.0794 8.83678C46.132 8.96067 46.2091 9.07267 46.306 9.16607L48.306 11.0911C48.4923 11.2707 48.7411 11.3711 49 11.3711C49.2588 11.3711 49.5076 11.2707 49.694 11.0911L51.694 9.16607C51.7909 9.07267 51.8679 8.96067 51.9205 8.83678C51.9731 8.71289 52.0001 8.57966 52 8.44507V6.89107C52.6394 7.57354 52.9967 8.47284 53 9.40807C52.9906 10.1607 52.7589 10.8938 52.334 11.5152C51.9091 12.1365 51.31 12.6183 50.612 12.9001C50.4307 12.9764 50.2759 13.1045 50.1671 13.2683C50.0582 13.4321 50.0001 13.6244 50 13.8211V19.7831C50 19.9232 50.0295 20.0617 50.0865 20.1897C50.1435 20.3177 50.2268 20.4323 50.331 20.5261C50.5402 20.7107 50.7079 20.9374 50.8232 21.1915C50.9385 21.4455 50.9988 21.7211 51 22.0001C51 22.5305 50.7893 23.0392 50.4142 23.4143C50.0391 23.7894 49.5304 24.0001 49 24.0001C48.4695 24.0001 47.9608 23.7894 47.5857 23.4143C47.2107 23.0392 47 22.5305 47 22.0001C47.0005 21.7202 47.0603 21.4437 47.1757 21.1887C47.291 20.9338 47.4591 20.7062 47.669 20.5211C47.7731 20.4273 47.8564 20.3127 47.9134 20.1847C47.9704 20.0568 47.9999 19.9182 48 19.7781V13.8161C47.9998 13.6194 47.9417 13.4271 47.8328 13.2633C47.724 13.0995 47.5692 12.9714 47.388 12.8951C46.6907 12.6137 46.0921 12.1326 45.6673 11.5122C45.2425 10.8919 45.0103 10.1599 45 9.40807C45.0032 8.47284 45.3605 7.57354 46 6.89107Z" fill="#86C540"/>
</svg>
